<svg id="Layer_1" data-name="Layer 1" xmlns="http://www.w3.org/2000/svg" viewBox="0 0 175.14 280.03"><defs><style>.cls-1{fill:#f8d0ae;}.cls-2{fill:#fee4cd;}.cls-3,.cls-4{fill:none;stroke:#989798;stroke-miterlimit:10;}.cls-3{stroke-width:2px;}.cls-5{fill:#7fc5de;}</style></defs><g id="new"><path class="cls-1" d="M195.58,225.49a13.63,13.63,0,0,1-1.42-.07,14.52,14.52,0,0,1-13-15.85l5.15-53.13a14.52,14.52,0,1,1,28.9,2.8L210,212.37A14.51,14.51,0,0,1,195.58,225.49Z" transform="translate(-164.05 -93.51)"/><path class="cls-1" d="M216.69,217A14.51,14.51,0,0,1,203.22,208l-38.11-94.48A14.52,14.52,0,0,1,192,102.6l38.11,94.48a14.53,14.53,0,0,1-8,18.9A14.26,14.26,0,0,1,216.69,217Z" transform="translate(-164.05 -93.51)"/><polygon class="cls-1" points="31.51 117.47 60.58 199.08 60.13 265.51 117.15 265.51 117.39 202.16 136.58 111.75 112.54 50.64 31.51 117.47"/><path class="cls-1" d="M281.2,373.54h-57a14.49,14.49,0,0,1-14.51-14.61l.43-63.87-28.2-79.21a14.52,14.52,0,0,1,4.44-16.08l81-66.82a14.51,14.51,0,0,1,22.74,5.88l24,61.1a14.55,14.55,0,0,1,.69,8.33L296,297.21l-.24,61.86A14.52,14.52,0,0,1,281.2,373.54Zm-42.4-29h27.94l.18-48.89a14,14,0,0,1,.32-3l18.28-86.14L270.4,168.08,212.66,215.7l25.65,72a14.46,14.46,0,0,1,.84,5Z" transform="translate(-164.05 -93.51)"/><path class="cls-2" d="M310.64,252.25a14.34,14.34,0,0,1-5.76-1.2A14.51,14.51,0,0,1,297.32,232l7.62-17.64-32.66-10.14a14.52,14.52,0,1,1,8.61-27.73L329,191.38A14.52,14.52,0,0,1,338,211l-14,32.48A14.5,14.5,0,0,1,310.64,252.25Z" transform="translate(-164.05 -93.51)"/><path class="cls-2" d="M310.65,237.73l-29.21,57.94L281.2,359H222.47V292.59S247.69,223.28,310.65,237.73Z" transform="translate(-164.05 -93.51)"/><path class="cls-2" d="M281.2,373.54H222.47A14.52,14.52,0,0,1,208,359V292.59a14.71,14.71,0,0,1,.87-5c1-2.71,24.86-66.4,85-66.4a89.92,89.92,0,0,1,20.07,2.35,14.53,14.53,0,0,1,9.72,20.69l-27.67,54.88-.23,59.94A14.5,14.5,0,0,1,281.2,373.54ZM237,344.5h29.75l.18-48.89a14.58,14.58,0,0,1,1.55-6.48l19.41-38.51C257,254.38,240.8,286.75,237,295.45V344.5Z" transform="translate(-164.05 -93.51)"/><path class="cls-2" d="M255.24,219.77A14.52,14.52,0,0,1,240.85,207l-7.56-61.11a14.52,14.52,0,1,1,28.82-3.56l7.56,61.1A14.53,14.53,0,0,1,257,219.66,13.8,13.8,0,0,1,255.24,219.77Z" transform="translate(-164.05 -93.51)"/><path class="cls-2" d="M281.56,217a14.51,14.51,0,0,1-14.45-13.29l-5-58.37a14.52,14.52,0,0,1,28.93-2.47l5,58.37A14.52,14.52,0,0,1,282.81,217,10.56,10.56,0,0,1,281.56,217Z" transform="translate(-164.05 -93.51)"/><path class="cls-2" d="M231.36,219.77A14.53,14.53,0,0,1,217,207.34l-8.91-61.1a14.52,14.52,0,1,1,28.73-4.18l8.9,61.1a14.53,14.53,0,0,1-12.28,16.47A16.3,16.3,0,0,1,231.36,219.77Z" transform="translate(-164.05 -93.51)"/><path class="cls-3" d="M205.51,339.57" transform="translate(-164.05 -93.51)"/><line class="cls-4" x1="163.29" y1="111.36" x2="146.05" y2="147.82"/><line class="cls-4" x1="145.72" y1="147.49" x2="88.71" y2="208.47"/><line class="cls-4" x1="88.38" y1="208.47" x2="88.38" y2="266.81"/><circle class="cls-5" cx="162.96" cy="111.03" r="5.08"/><circle class="cls-5" cx="145.72" cy="147.49" r="5.08"/><circle class="cls-5" cx="88.05" cy="266.81" r="5.08"/><line class="cls-4" x1="58.55" y1="48.38" x2="67.83" y2="114.01"/><line class="cls-4" x1="83.41" y1="48.72" x2="91.36" y2="114.34"/><line class="cls-4" x1="113.24" y1="48.72" x2="117.88" y2="113.68"/><circle class="cls-5" cx="113.24" cy="48.72" r="5.08"/><circle class="cls-5" cx="58.22" cy="48.72" r="5.08"/><circle class="cls-5" cx="83.41" cy="48.72" r="5.08"/><line class="cls-4" x1="67.83" y1="114.01" x2="89.04" y2="208.14"/><line class="cls-4" x1="91.36" y1="114.34" x2="88.71" y2="208.47"/><line class="cls-4" x1="117.88" y1="113.68" x2="88.71" y2="208.47"/><circle class="cls-5" cx="117.88" cy="113.68" r="5.08"/><circle class="cls-5" cx="67.5" cy="114.34" r="5.08"/><circle class="cls-5" cx="91.36" cy="114.34" r="5.08"/><line class="cls-4" x1="32.7" y1="60.32" x2="88.38" y2="208.8"/><circle class="cls-5" cx="88.71" cy="208.47" r="5.08"/><line class="cls-4" x1="13.8" y1="12.26" x2="33.03" y2="59.98"/><circle class="cls-5" cx="13.8" cy="12.26" r="5.08"/><circle class="cls-5" cx="33.03" cy="59.98" r="5.08"/></g></svg>