<?xml version="1.0" encoding="utf-8"?>
<!-- Generator: Adobe Illustrator 26.0.2, SVG Export Plug-In . SVG Version: 6.00 Build 0)  -->
<svg version="1.1" id="Layer_1" xmlns="http://www.w3.org/2000/svg" xmlns:xlink="http://www.w3.org/1999/xlink" x="0px" y="0px"
	 viewBox="0 0 1366 768" style="enable-background:new 0 0 1366 768;" xml:space="preserve">
<style type="text/css">
	.st0{fill:#3AA4BF;}
	.st1{font-family:'Lato-Thin';}
	.st2{font-size:126.2px;}
	.st3{letter-spacing:113;}
	.st4{display:none;}
	.st5{display:inline;fill:none;stroke:#999999;stroke-width:2;stroke-miterlimit:10;}
	.st6{display:none;fill:none;stroke:#999999;stroke-miterlimit:10;}
	.st7{display:inline;fill:none;stroke:#999999;stroke-miterlimit:10;}
	.st8{display:inline;}
	.st9{fill:#F9CFAC;}
	.st10{fill:#FFE4CC;}
	.st11{display:inline;fill:#7CC5DE;}
	.st12{display:inline;fill:none;}
	.st13{display:inline;fill:#3AA4BF;}
	.st14{font-family:'MZ_Hend';}
	.st15{font-size:507.5755px;}
	.st16{display:none;fill:none;stroke:#000000;stroke-width:0.25;stroke-miterlimit:10;}
	.st17{fill:none;stroke:#999999;stroke-width:2;stroke-miterlimit:10;}
	.st18{fill:none;stroke:#999999;stroke-miterlimit:10;}
	.st19{fill:#7CC5DE;}
</style>
<path class="st0" d="M315.95,238.48h-79.56v-36.43h59.62"/>
<g>
	<g>
		<path class="st0" d="M247.92,238.72h-72.86c-6.61,0-11.98,2.07-16.11,6.2c-4.3,4.3-6.44,9.67-6.44,16.11V482.1h-36.43V261.03
			c0-16.02,5.78-29.82,17.35-41.39c11.73-11.73,25.61-17.6,41.64-17.6h72.44"/>
		<path class="st0" d="M506.87,380.73h-79.56V344.3h79.56V380.73z"/>
		<path class="st0" d="M475.39,380.73V344.3h121.94V181.72h36.43V344.3h81.29v36.43L475.39,380.73L475.39,380.73z M514.06,482.1
			c-6.28,0-11.57-2.15-15.86-6.44c-4.3-4.3-6.44-9.58-6.44-15.86c0-6.44,2.15-11.81,6.44-16.11c4.13-4.13,9.42-6.2,15.86-6.2
			c6.61,0,11.98,2.06,16.11,6.2c4.13,4.13,6.2,9.5,6.2,16.11c0,6.44-2.07,11.73-6.2,15.86C525.87,479.95,520.5,482.1,514.06,482.1z
			 M595.1,482.1c-6.28,0-11.57-2.15-15.86-6.44c-4.3-4.3-6.44-9.58-6.44-15.86c0-6.44,2.15-11.81,6.44-16.11
			c4.13-4.13,9.42-6.2,15.86-6.2c6.61,0,11.98,2.06,16.11,6.2c4.13,4.13,6.2,9.5,6.2,16.11c0,6.44-2.07,11.73-6.2,15.86
			C606.91,479.95,601.54,482.1,595.1,482.1z"/>
		<path class="st0" d="M897.71,380.73H658.05V344.3h111.78V19.38h36.43V344.3h91.45L897.71,380.73L897.71,380.73z"/>
		<path class="st0" d="M1141.09,321.75c0,16.03-5.87,29.91-17.6,41.64c-11.57,11.57-25.28,17.35-41.14,17.35H840.71V344.3h241.64
			c6.44,0,11.81-2.15,16.11-6.44c4.13-4.13,6.2-9.5,6.2-16.11V240.7c0-6.61-2.07-11.98-6.2-16.11s-9.5-6.2-16.11-6.2H970.58
			c-15.86,0-29.66-5.86-41.39-17.6c-11.57-11.56-17.35-25.36-17.35-41.39V98.44c0-15.86,5.78-29.57,17.35-41.14
			c11.73-11.73,25.53-17.6,41.39-17.6h170.51v36.43H970.58c-6.44,0-11.73,2.07-15.86,6.2c-4.3,4.3-6.44,9.67-6.44,16.11v60.97
			c0,6.28,2.15,11.57,6.44,15.86c4.29,4.3,9.58,6.44,15.86,6.44h111.78c15.69,0,29.41,5.87,41.14,17.6
			c11.73,11.73,17.6,25.53,17.6,41.39v81.05H1141.09z"/>
	</g>
</g>
<text transform="matrix(1 0 0 1 103.064 625.5303)" class="st1 st2 st3">KALEEM</text>
<g class="st4">
	<polyline class="st5" points="169.23,250.5 169.23,187.9 231.83,187.9 	"/>
	<polyline class="st5" points="231.83,621.03 169.23,621.03 169.23,558.43 	"/>
	<polyline class="st5" points="443.32,558.43 443.32,621.03 379.03,621.03 	"/>
	<polyline class="st5" points="379.03,187.9 443.32,187.9 443.32,250.5 	"/>
</g>
<line class="st6" x1="304.5" y1="502.5" x2="304.5" y2="556.5"/>
<line class="st6" x1="1404.5" y1="489.5" x2="-795.5" y2="489.5"/>
<g class="st4">
	<path class="st7" d="M349.94,380.36c-11.25,0-20.83-8.62-21.8-20.04l-7.52-88.05c-1.03-12.05,7.91-22.66,19.96-23.68
		c12.1-1.04,22.66,7.9,23.69,19.96l7.52,88.06c1.03,12.05-7.91,22.65-19.96,23.69C351.2,380.34,350.56,380.36,349.94,380.36z"/>
	<line class="st7" x1="341.5" y1="248.5" x2="351.5" y2="380.5"/>
	<path class="st7" d="M310.23,384.49c-10.9,0-20.34-8.12-21.71-19.21l-11.41-92.18c-1.49-12,7.04-22.94,19.05-24.42
		c12.05-1.47,22.94,7.04,24.43,19.05L332,359.89c1.49,12-7.04,22.94-19.05,24.43C312.04,384.43,311.13,384.49,310.23,384.49z"/>
	<path class="st7" d="M274.21,384.49c-10.7,0-20.06-7.85-21.65-18.75l-13.43-92.18c-1.75-11.97,6.55-23.09,18.52-24.83
		c11.95-1.73,23.08,6.54,24.83,18.52l13.43,92.17c1.75,11.97-6.54,23.09-18.52,24.84C276.33,384.41,275.26,384.49,274.21,384.49z"/>
	<line class="st7" x1="296.5" y1="248.5" x2="312.5" y2="384.5"/>
	<line class="st7" x1="257.5" y1="248.5" x2="277.5" y2="384.5"/>
</g>
<g id="الطالع" class="st4">
	<path class="st7" d="M252.09,380.36c-8.67,0-16.88-5.18-20.32-13.71l-57.5-142.53c-4.52-11.22,0.91-23.98,12.12-28.5
		c11.23-4.53,23.98,0.9,28.5,12.12l57.5,142.52c4.52,11.22-0.91,23.99-12.12,28.51C257.59,379.86,254.81,380.36,252.09,380.36z"/>
	<line class="st7" x1="260.5" y1="378.5" x2="186.5" y2="195.5"/>
</g>
<g class="st4">
	<g class="st8">
		<path class="st9" d="M315.08,331.11c-0.47,0-0.95-0.02-1.44-0.07c-8.07-0.78-13.99-7.96-13.2-16.04l5.21-53.76
			c0.78-8.08,7.98-13.99,16.04-13.21c8.07,0.78,13.99,7.97,13.2,16.04l-5.21,53.76C328.95,325.43,322.55,331.11,315.08,331.11z"/>
		<g>
			<path class="st9" d="M336.44,322.55c-5.82,0-11.32-3.47-13.63-9.2l-38.57-95.6c-3.03-7.52,0.61-16.08,8.13-19.12
				c7.53-3.04,16.08,0.61,19.12,8.13l38.56,95.59c3.04,7.53-0.61,16.09-8.13,19.12C340.13,322.21,338.27,322.55,336.44,322.55z"/>
			<g>
				<polygon class="st9" points="315.06,316.41 344.47,399 344.02,466.21 401.71,466.21 401.95,402.11 421.37,310.63 397.04,248.8 
									"/>
				<path class="st9" d="M401.71,480.9h-57.69c-3.91,0-7.66-1.56-10.42-4.33c-2.75-2.78-4.29-6.54-4.26-10.46l0.44-64.62
					l-28.54-80.14c-2.08-5.83-0.28-12.33,4.49-16.27l81.98-67.61c3.63-3,8.48-4.07,13.03-2.89c4.55,1.18,8.27,4.47,9.99,8.85
					l24.33,61.82c1.06,2.68,1.3,5.61,0.7,8.43l-19.1,90l-0.24,62.59C416.37,474.36,409.8,480.9,401.71,480.9z M358.81,451.52h28.27
					l0.19-49.47c0-1,0.11-2.01,0.32-2.99l18.5-87.16l-15.3-38.89l-58.42,48.18l25.95,72.88c0.58,1.61,0.86,3.31,0.85,5.02
					L358.81,451.52z"/>
			</g>
			<path class="st10" d="M431.5,358.18c-1.95,0-3.93-0.39-5.83-1.21c-7.44-3.21-10.87-11.86-7.65-19.31l7.71-17.85l-33.04-10.26
				c-7.75-2.41-12.08-10.64-9.68-18.39c2.41-7.75,10.64-12.08,18.38-9.67l48.66,15.11c3.98,1.23,7.25,4.11,8.99,7.89
				c1.75,3.79,1.8,8.14,0.14,11.96l-14.2,32.86C442.59,354.86,437.18,358.18,431.5,358.18z"/>
			<g>
				<path class="st10" d="M431.51,343.49l-29.55,58.62l-0.24,64.11h-59.43V399C342.29,399,367.8,328.87,431.51,343.49z"/>
				<path class="st10" d="M401.71,480.9h-59.43c-8.11,0-14.69-6.58-14.69-14.69V399c0-1.71,0.3-3.41,0.89-5.02
					c1-2.74,25.16-67.19,86-67.19c6.6,0,13.44,0.8,20.31,2.38c4.4,1.01,8.09,3.99,10.01,8.08c1.92,4.08,1.85,8.82-0.17,12.86
					l-27.99,55.53l-0.23,60.64C416.37,474.36,409.8,480.9,401.71,480.9z M356.98,451.52h30.1l0.19-49.47
					c0.01-2.28,0.55-4.52,1.57-6.55l19.64-38.96c-31.25,3.8-47.63,36.56-51.5,45.36L356.98,451.52L356.98,451.52z"/>
			</g>
			<path class="st10" d="M375.44,325.32c-7.31,0-13.64-5.45-14.56-12.89l-7.65-61.83c-1-8.05,4.72-15.39,12.78-16.38
				c8.08-0.98,15.38,4.72,16.38,12.78l7.65,61.82c1,8.05-4.72,15.39-12.78,16.39C376.65,325.28,376.04,325.32,375.44,325.32z"/>
			<path class="st10" d="M402.07,322.55c-7.55,0-13.97-5.78-14.62-13.44l-5.05-59.06c-0.69-8.08,5.3-15.2,13.38-15.88
				c8.12-0.7,15.2,5.3,15.89,13.38l5.05,59.06c0.69,8.08-5.3,15.19-13.39,15.89C402.91,322.54,402.49,322.55,402.07,322.55z"/>
			<path class="st10" d="M351.28,325.32c-7.18,0-13.45-5.26-14.52-12.57l-9.01-61.83c-1.17-8.03,4.39-15.49,12.42-16.66
				c8.02-1.16,15.48,4.39,16.66,12.42l9.01,61.82c1.17,8.03-4.39,15.49-12.42,16.66C352.7,325.27,351.98,325.32,351.28,325.32z"/>
		</g>
	</g>
	<path class="st5" d="M325.12,446.53"/>
	<line class="st7" x1="448.39" y1="310.24" x2="430.95" y2="347.13"/>
	<line class="st7" x1="430.62" y1="346.79" x2="372.94" y2="408.5"/>
	<line class="st7" x1="372.6" y1="408.5" x2="372.6" y2="467.52"/>
	<circle class="st11" cx="448.06" cy="309.9" r="5.14"/>
	<circle class="st11" cx="430.62" cy="346.79" r="5.14"/>
	<circle class="st11" cx="372.27" cy="467.52" r="5.14"/>
	<line class="st7" x1="342.42" y1="246.52" x2="351.81" y2="312.92"/>
	<line class="st7" x1="367.57" y1="246.85" x2="375.62" y2="313.25"/>
	<line class="st7" x1="397.75" y1="246.85" x2="402.45" y2="312.58"/>
	<circle class="st11" cx="397.75" cy="246.85" r="5.14"/>
	<circle class="st11" cx="342.08" cy="246.85" r="5.14"/>
	<circle class="st11" cx="367.57" cy="246.85" r="5.14"/>
	<line class="st7" x1="351.81" y1="312.92" x2="373.27" y2="408.16"/>
	<line class="st7" x1="375.62" y1="313.25" x2="372.94" y2="408.5"/>
	<line class="st7" x1="402.45" y1="312.58" x2="372.94" y2="408.5"/>
	<circle class="st11" cx="402.45" cy="312.58" r="5.14"/>
	<circle class="st11" cx="351.47" cy="313.25" r="5.14"/>
	<circle class="st11" cx="375.62" cy="313.25" r="5.14"/>
	<line class="st7" x1="316.26" y1="258.59" x2="372.6" y2="408.83"/>
	<circle class="st11" cx="372.94" cy="408.5" r="5.14"/>
	<line class="st7" x1="297.14" y1="209.96" x2="316.59" y2="258.25"/>
	<circle class="st11" cx="297.14" cy="209.96" r="5.14"/>
	<circle class="st11" cx="316.59" cy="258.25" r="5.14"/>
</g>
<g class="st4">
	<rect x="-1342.18" y="115.09" class="st12" width="1305.19" height="616.85"/>
	<text transform="matrix(1 0 0 1 -1342.1815 561.7607)" class="st13 st14 st15">مـيلك</text>
</g>
<line class="st16" x1="597" y1="182" x2="148" y2="182"/>
<line class="st16" x1="597" y1="482" x2="148" y2="482"/>
<line class="st16" x1="22.5" y1="228.99" x2="22.5" y2="407.01"/>
<g id="new">
	<g>
		<path class="st9" d="M313.74,334.02c-0.47,0-0.94-0.02-1.42-0.07c-7.98-0.77-13.82-7.87-13.05-15.85l5.15-53.13
			c0.77-7.98,7.89-13.82,15.85-13.05c7.98,0.77,13.82,7.87,13.05,15.85l-5.15,53.13C327.45,328.41,321.13,334.02,313.74,334.02z"/>
		<g>
			<path class="st9" d="M334.85,325.57c-5.75,0-11.19-3.43-13.47-9.09L283.27,222c-3-7.43,0.6-15.89,8.04-18.9s15.9,0.6,18.89,8.03
				l38.11,94.48c3,7.44-0.6,15.9-8.03,18.9C338.5,325.23,336.66,325.57,334.85,325.57z"/>
			<g>
				<polygon class="st9" points="313.73,319.5 342.79,401.12 342.34,467.55 399.36,467.55 399.6,404.19 418.79,313.78 
					394.75,252.68 				"/>
				<path class="st9" d="M399.36,482.07h-57.02c-3.87,0-7.57-1.54-10.3-4.28c-2.72-2.75-4.24-6.47-4.21-10.33l0.43-63.87
					l-28.2-79.21c-2.05-5.76-0.28-12.19,4.44-16.08l81.02-66.82c3.59-2.96,8.38-4.02,12.87-2.86c4.5,1.16,8.17,4.41,9.87,8.74
					l24.05,61.1c1.04,2.65,1.28,5.55,0.69,8.33l-18.88,88.95l-0.24,61.86C413.85,475.6,407.36,482.07,399.36,482.07z M356.96,453.03
					h27.94l0.18-48.89c0-0.99,0.11-1.99,0.32-2.96l18.28-86.14l-15.12-38.43l-57.74,47.62l25.65,72.03
					c0.57,1.59,0.85,3.27,0.84,4.97L356.96,453.03z"/>
			</g>
			<path class="st10" d="M428.8,360.78c-1.93,0-3.88-0.38-5.76-1.2c-7.36-3.18-10.75-11.72-7.56-19.09l7.62-17.64l-32.66-10.14
				c-7.66-2.38-11.94-10.51-9.56-18.17s10.51-11.94,18.17-9.56l48.09,14.93c3.94,1.22,7.16,4.06,8.89,7.8
				c1.72,3.75,1.77,8.04,0.14,11.82l-14.04,32.48C439.77,357.5,434.42,360.78,428.8,360.78z"/>
			<g>
				<path class="st10" d="M428.81,346.26L399.6,404.2l-0.24,63.36h-58.73v-66.43C340.63,401.12,365.85,331.81,428.81,346.26z"/>
				<path class="st10" d="M399.36,482.07h-58.73c-8.02,0-14.52-6.5-14.52-14.52v-66.43c0-1.69,0.3-3.37,0.87-4.96
					c0.99-2.71,24.86-66.4,85-66.4c6.52,0,13.28,0.79,20.07,2.35c4.35,1,8,3.94,9.89,7.98c1.9,4.04,1.83,8.72-0.17,12.71
					l-27.67,54.88l-0.23,59.94C413.85,475.6,407.36,482.07,399.36,482.07z M355.15,453.03h29.75l0.18-48.89
					c0.01-2.25,0.54-4.47,1.55-6.48l19.41-38.51c-30.88,3.76-47.08,36.13-50.9,44.83v49.05H355.15z"/>
			</g>
			<path class="st10" d="M373.4,328.3c-7.22,0-13.48-5.38-14.39-12.74l-7.56-61.11c-0.99-7.95,4.67-15.21,12.63-16.19
				c7.99-0.97,15.2,4.67,16.19,12.63l7.56,61.1c0.99,7.96-4.67,15.21-12.63,16.2C374.6,328.27,373.99,328.3,373.4,328.3z"/>
			<path class="st10" d="M399.72,325.57c-7.46,0-13.81-5.71-14.45-13.29l-4.99-58.37c-0.68-7.99,5.24-15.02,13.23-15.7
				c8.02-0.69,15.02,5.24,15.7,13.23l4.99,58.37c0.68,7.99-5.24,15.02-13.23,15.7C400.55,325.55,400.13,325.57,399.72,325.57z"/>
			<path class="st10" d="M349.52,328.3c-7.09,0-13.29-5.2-14.35-12.43l-8.91-61.1c-1.16-7.93,4.34-15.3,12.27-16.46
				c7.92-1.15,15.3,4.34,16.46,12.28l8.9,61.1c1.16,7.93-4.34,15.31-12.28,16.47C350.92,328.25,350.21,328.3,349.52,328.3z"/>
		</g>
	</g>
	<path class="st17" d="M323.67,448.09"/>
	<line class="st18" x1="445.5" y1="313.39" x2="428.26" y2="349.85"/>
	<line class="st18" x1="427.93" y1="349.52" x2="370.92" y2="410.51"/>
	<line class="st18" x1="370.59" y1="410.51" x2="370.59" y2="468.85"/>
	<circle class="st19" cx="445.17" cy="313.06" r="5.08"/>
	<circle class="st19" cx="427.93" cy="349.52" r="5.08"/>
	<circle class="st19" cx="370.26" cy="468.84" r="5.08"/>
	<line class="st18" x1="340.76" y1="250.42" x2="350.04" y2="316.05"/>
	<line class="st18" x1="365.62" y1="250.75" x2="373.57" y2="316.38"/>
	<line class="st18" x1="395.45" y1="250.75" x2="400.09" y2="315.71"/>
	<circle class="st19" cx="395.45" cy="250.75" r="5.08"/>
	<circle class="st19" cx="340.43" cy="250.75" r="5.08"/>
	<circle class="st19" cx="365.62" cy="250.75" r="5.08"/>
	<line class="st18" x1="350.04" y1="316.05" x2="371.25" y2="410.18"/>
	<line class="st18" x1="373.57" y1="316.38" x2="370.92" y2="410.51"/>
	<line class="st18" x1="400.09" y1="315.71" x2="370.92" y2="410.51"/>
	<circle class="st19" cx="400.09" cy="315.71" r="5.08"/>
	<circle class="st19" cx="349.71" cy="316.38" r="5.08"/>
	<circle class="st19" cx="373.57" cy="316.38" r="5.08"/>
	<line class="st18" x1="314.91" y1="262.35" x2="370.59" y2="410.84"/>
	<circle class="st19" cx="370.92" cy="410.51" r="5.08"/>
	<line class="st18" x1="296.02" y1="214.29" x2="315.24" y2="262.02"/>
	<circle class="st19" cx="296.02" cy="214.29" r="5.08"/>
	<circle class="st19" cx="315.24" cy="262.02" r="5.08"/>
</g>
</svg>
